<?xml version="1.0" encoding="UTF-8" standalone="no"?>
<svg
   xmlns:dc="http://purl.org/dc/elements/1.1/"
   xmlns:cc="http://creativecommons.org/ns#"
   xmlns:rdf="http://www.w3.org/1999/02/22-rdf-syntax-ns#"
   xmlns:svg="http://www.w3.org/2000/svg"
   xmlns="http://www.w3.org/2000/svg"
   id="svg2"
   version="1.1"
   xml:space="preserve"
   width="574.16626"
   height="338.6825"
   viewBox="0 0 574.16626 338.6825"><metadata
     id="metadata8"><rdf:RDF><cc:Work
         rdf:about=""><dc:format>image/svg+xml</dc:format><dc:type
           rdf:resource="http://purl.org/dc/dcmitype/StillImage" /></cc:Work></rdf:RDF></metadata><defs
     id="defs6"><clipPath
       clipPathUnits="userSpaceOnUse"
       id="clipPath16"><path
         d="m 0,270.946 459.333,0 L 459.333,0 0,0 0,270.946 Z"
         id="path18" /></clipPath></defs><g
     id="g10"
     transform="matrix(1.25,0,0,-1.25,0,338.6825)"><g
       id="g12"><g
         id="g14"
         clip-path="url(#clipPath16)"><g
           id="g20"
           transform="translate(19.0278,65.6777)"><path
             d="m 0,0 0,10.959 c 0,7.224 2.11,13.068 6.332,17.534 4.219,4.463 10.511,6.696 18.873,6.696 5.276,0 9.699,-0.913 13.272,-2.739 3.571,-1.826 5.358,-3.877 5.358,-6.149 0,-1.381 -0.508,-2.761 -1.522,-4.14 -1.016,-1.381 -2.213,-2.07 -3.592,-2.07 -0.408,0 -1.847,0.609 -4.323,1.827 -2.477,1.217 -5.217,1.826 -8.219,1.826 -8.93,0 -13.394,-4.275 -13.394,-12.821 l 0,-10.887 c 0,-8.548 4.505,-12.821 13.516,-12.821 3.084,0 5.864,0.648 8.341,1.948 2.475,1.298 3.957,1.948 4.444,1.948 1.623,0 2.941,-0.65 3.957,-1.948 1.015,-1.3 1.522,-2.679 1.522,-4.14 0,-2.273 -1.868,-4.383 -5.601,-6.332 -3.735,-1.948 -8.28,-2.921 -13.637,-2.921 -8.444,0 -14.776,2.209 -18.995,6.635 C 2.11,-13.171 0,-7.306 0,0"
             style="fill:#a6cfc8;fill-opacity:1;fill-rule:nonzero;stroke:none"
             id="path22" /></g><g
           id="g24"
           transform="translate(82.8325,76.0273)"><path
             d="m 0,0 20.213,0 c 1.785,0 2.983,0.24 3.592,0.72 0.609,0.479 0.913,1.438 0.913,2.877 0,3.194 -1.177,5.909 -3.531,8.146 C 18.832,13.98 15.909,15.1 12.42,15.1 9.01,15.1 6.088,14.039 3.653,11.924 1.218,9.807 0,7.11 0,3.834 L 0,0 Z m -12.785,-10.35 0,11.568 c 0,6.412 2.475,11.952 7.428,16.621 4.95,4.667 10.916,7.001 17.899,7.001 6.655,0 12.359,-2.111 17.107,-6.335 4.749,-4.224 7.123,-9.553 7.123,-15.987 0,-2.484 -0.285,-4.491 -0.852,-6.02 -0.568,-1.532 -1.461,-2.608 -2.678,-3.228 -1.218,-0.622 -2.356,-1.015 -3.41,-1.18 -1.056,-0.166 -2.435,-0.248 -4.14,-0.248 l -25.692,0 0,-2.821 c 0,-4.09 1.461,-7.342 4.383,-9.754 2.923,-2.413 6.738,-3.62 11.446,-3.62 3.328,0 6.473,0.777 9.437,2.332 2.963,1.551 4.768,2.33 5.419,2.33 1.379,0 2.557,-0.653 3.531,-1.955 0.974,-1.304 1.461,-2.568 1.461,-3.789 0,-2.005 -1.948,-4.032 -5.845,-6.077 -3.896,-2.047 -8.687,-3.068 -14.368,-3.068 -8.28,0 -15.059,2.231 -20.335,6.696 -5.277,4.464 -7.914,10.309 -7.914,17.534"
             style="fill:#a6cfc8;fill-opacity:1;fill-rule:nonzero;stroke:none"
             id="path26" /></g><g
           id="g28"
           transform="translate(129.9551,46.6826)"><path
             d="m 0,0 0,49.314 c 0,1.218 0.588,2.211 1.766,2.984 1.175,0.77 2.698,1.156 4.566,1.156 1.541,0 2.88,-0.39 4.018,-1.17 1.136,-0.78 1.705,-1.786 1.705,-3.017 l 0,-4.435 c 3.489,6.234 8.889,9.353 16.195,9.353 3.571,0 6.757,-1.128 9.558,-3.383 2.8,-2.254 4.931,-5.226 6.393,-8.913 2.028,4.016 4.688,7.07 7.975,9.161 3.288,2.089 6.758,3.135 10.411,3.135 5.763,0 10.734,-2.172 14.916,-6.514 4.18,-4.344 6.271,-10.168 6.271,-17.474 L 83.774,0 c 0,-1.056 -0.651,-2.03 -1.948,-2.922 -1.3,-0.894 -2.801,-1.34 -4.506,-1.34 -1.624,0 -3.086,0.446 -4.383,1.336 -1.3,0.89 -1.948,1.861 -1.948,2.914 l 0,30.12 c 0,3.967 -1.138,7.083 -3.41,9.351 -2.273,2.268 -4.912,3.402 -7.914,3.402 -3.004,0 -5.663,-1.134 -7.976,-3.402 -2.314,-2.268 -3.47,-5.303 -3.47,-9.107 l 0,-30.485 c 0,-1.378 -0.63,-2.409 -1.887,-3.097 -1.26,-0.689 -2.782,-1.032 -4.567,-1.032 -1.624,0 -3.086,0.343 -4.383,1.032 -1.299,0.688 -1.948,1.719 -1.948,3.097 l 0,30.362 c 0,3.644 -1.117,6.641 -3.349,8.989 -2.233,2.347 -4.892,3.521 -7.976,3.521 -3.086,0 -5.743,-1.134 -7.975,-3.402 -2.234,-2.268 -3.348,-5.344 -3.348,-9.229 l 0,-30.12 c 0,-1.053 -0.651,-2.024 -1.949,-2.914 -1.299,-0.89 -2.8,-1.336 -4.505,-1.336 -1.787,0 -3.288,0.446 -4.505,1.34 C 0.609,-2.03 0,-1.056 0,0"
             style="fill:#eabe38;fill-opacity:1;fill-rule:nonzero;stroke:none"
             id="path30" /></g><g
           id="g32"
           transform="translate(237.1074,65.7139)"><path
             d="m 0,0 c 0,-3.307 1.218,-6.271 3.652,-8.891 2.436,-2.622 5.359,-3.93 8.768,-3.93 3.327,0 6.228,1.308 8.706,3.93 2.475,2.62 3.714,5.584 3.714,8.891 l 0,11.128 c 0,3.226 -1.239,6.128 -3.714,8.708 -2.478,2.58 -5.379,3.872 -8.706,3.872 -3.409,0 -6.332,-1.292 -8.768,-3.872 C 1.218,17.256 0,14.354 0,11.128 L 0,0 Z m -12.786,-0.036 0,11.202 c 0,6.412 2.475,12.013 7.429,16.804 4.95,4.789 10.877,7.183 17.777,7.183 6.736,0 12.621,-2.374 17.655,-7.123 5.032,-4.748 7.55,-10.37 7.55,-16.864 l 0,-11.202 c 0,-6.332 -2.538,-11.954 -7.61,-16.864 -5.075,-4.912 -10.94,-7.367 -17.595,-7.367 -6.739,0 -12.624,2.435 -17.656,7.306 -5.035,4.87 -7.55,10.512 -7.55,16.925"
             style="fill:#eabe38;fill-opacity:1;fill-rule:nonzero;stroke:none"
             id="path34" /></g><g
           id="g36"
           transform="translate(282.2812,51.1875)"><path
             d="m 0,0 c 0,1.218 0.429,2.476 1.288,3.775 0.86,1.297 1.902,1.949 3.13,1.949 0.736,0 1.76,-0.478 3.068,-1.431 C 8.796,3.338 10.554,2.385 12.763,1.431 14.972,0.476 17.631,0 20.74,0 c 6.954,0 10.432,2.205 10.432,6.615 0,2.369 -1.016,4.228 -3.044,5.575 -2.03,1.347 -4.486,2.409 -7.367,3.185 -2.882,0.776 -5.744,1.653 -8.584,2.633 -2.843,0.98 -5.279,2.654 -7.306,5.023 -2.03,2.368 -3.045,5.432 -3.045,9.19 0,4.767 1.705,8.869 5.114,12.305 3.41,3.436 8.646,5.154 15.708,5.154 4.627,0 8.829,-0.711 12.603,-2.131 3.774,-1.421 5.662,-3.105 5.662,-5.053 0,-1.138 -0.469,-2.456 -1.4,-3.957 -0.935,-1.503 -2.091,-2.253 -3.471,-2.253 -0.486,0 -2.151,0.609 -4.992,1.826 -2.842,1.218 -5.561,1.827 -8.158,1.827 -3.247,0 -5.705,-0.736 -7.367,-2.205 -1.665,-1.47 -2.496,-3.105 -2.496,-4.901 0,-1.96 1.014,-3.513 3.044,-4.655 2.029,-1.144 4.505,-2.084 7.428,-2.819 2.922,-0.734 5.799,-1.631 8.634,-2.693 2.835,-1.062 5.249,-2.899 7.244,-5.514 1.996,-2.614 2.995,-5.963 2.995,-10.046 0,-5.252 -1.868,-9.374 -5.602,-12.363 -3.734,-2.99 -9.009,-4.483 -15.829,-4.483 -5.764,0 -10.696,1.013 -14.794,3.044 C 2.049,-4.669 0,-2.435 0,0"
             style="fill:#c93e56;fill-opacity:1;fill-rule:nonzero;stroke:none"
             id="path38" /></g><g
           id="g40"
           transform="translate(335.126,46.6826)"><path
             d="m 0,0 0,49.314 c 0,1.218 0.588,2.211 1.766,2.984 1.175,0.77 2.697,1.156 4.565,1.156 1.867,0 3.41,-0.386 4.628,-1.156 1.217,-0.773 1.826,-1.766 1.826,-2.984 L 12.785,0 c 0,-1.056 -0.63,-2.03 -1.888,-2.922 -1.259,-0.894 -2.781,-1.34 -4.566,-1.34 -1.786,0 -3.287,0.446 -4.505,1.34 C 0.608,-2.03 0,-1.056 0,0"
             style="fill:#c93e56;fill-opacity:1;fill-rule:nonzero;stroke:none"
             id="path42" /></g><g
           id="g44"
           transform="translate(357.6514,51.1875)"><path
             d="m 0,0 c 0,1.218 0.429,2.476 1.288,3.775 0.86,1.297 1.902,1.949 3.13,1.949 0.736,0 1.76,-0.478 3.068,-1.431 C 8.796,3.338 10.554,2.385 12.763,1.431 14.972,0.476 17.631,0 20.74,0 c 6.954,0 10.432,2.205 10.432,6.615 0,2.369 -1.016,4.228 -3.044,5.575 -2.03,1.347 -4.486,2.409 -7.367,3.185 -2.882,0.776 -5.744,1.653 -8.584,2.633 -2.843,0.98 -5.279,2.654 -7.306,5.023 -2.03,2.368 -3.045,5.432 -3.045,9.19 0,4.767 1.705,8.869 5.114,12.305 3.41,3.436 8.646,5.154 15.708,5.154 4.627,0 8.829,-0.711 12.603,-2.131 3.774,-1.421 5.662,-3.105 5.662,-5.053 0,-1.138 -0.469,-2.456 -1.4,-3.957 -0.935,-1.503 -2.091,-2.253 -3.471,-2.253 -0.486,0 -2.151,0.609 -4.992,1.826 -2.842,1.218 -5.561,1.827 -8.158,1.827 -3.247,0 -5.705,-0.736 -7.367,-2.205 -1.665,-1.47 -2.496,-3.105 -2.496,-4.901 0,-1.96 1.014,-3.513 3.044,-4.655 2.029,-1.144 4.505,-2.084 7.428,-2.819 2.922,-0.734 5.799,-1.631 8.634,-2.693 2.835,-1.062 5.249,-2.899 7.244,-5.514 1.996,-2.614 2.995,-5.963 2.995,-10.046 0,-5.252 -1.868,-9.374 -5.602,-12.363 -3.734,-2.99 -9.009,-4.483 -15.829,-4.483 -5.764,0 -10.696,1.013 -14.794,3.044 C 2.049,-4.669 0,-2.435 0,0"
             style="fill:#a6cfc8;fill-opacity:1;fill-rule:nonzero;stroke:none"
             id="path46" /></g><g
           id="g48"
           transform="translate(20.7485,19.5752)"><path
             d="M 0,0 0,5.498 C 0,6.861 0.362,7.866 1.087,8.512 1.811,9.156 2.758,9.479 3.927,9.479 5.12,9.479 6.076,9.178 6.794,8.575 7.513,7.973 7.872,7.215 7.872,6.302 7.872,5.973 7.811,5.75 7.689,5.635 7.567,5.519 7.373,5.461 7.105,5.461 c -0.487,0 -0.743,0.177 -0.767,0.53 -0.073,1.4 -0.865,2.1 -2.375,2.1 -1.619,0 -2.429,-0.864 -2.429,-2.593 L 1.534,0 c 0,-1.729 0.828,-2.594 2.484,-2.594 0.475,0 0.871,0.068 1.188,0.201 0.316,0.134 0.55,0.33 0.703,0.584 0.152,0.256 0.252,0.476 0.301,0.659 0.048,0.182 0.091,0.425 0.128,0.73 0.037,0.353 0.292,0.529 0.767,0.529 0.268,0 0.462,-0.06 0.584,-0.182 C 7.811,-0.195 7.872,-0.42 7.872,-0.749 7.872,-1.675 7.51,-2.444 6.785,-3.06 6.061,-3.674 5.102,-3.981 3.909,-3.981 2.751,-3.981 1.811,-3.659 1.087,-3.014 0.362,-2.368 0,-1.364 0,0"
             style="fill:#1d1d1b;fill-opacity:1;fill-rule:nonzero;stroke:none"
             id="path50" /></g><g
           id="g52"
           transform="translate(31.4331,20.6348)"><path
             d="m 0,0 3.379,0 c 0.317,0 0.53,0.039 0.64,0.118 0.109,0.079 0.164,0.235 0.164,0.466 0,0.548 -0.201,1.029 -0.603,1.443 C 3.178,2.441 2.685,2.648 2.101,2.648 1.528,2.648 1.035,2.456 0.621,2.073 0.207,1.689 0,1.217 0,0.657 L 0,0 Z m -1.516,-1.534 0,1.918 c 0,0.937 0.356,1.747 1.069,2.429 0.712,0.681 1.567,1.022 2.566,1.022 0.95,0 1.772,-0.317 2.465,-0.953 C 5.279,2.246 5.625,1.449 5.625,0.493 5.625,0.136 5.583,-0.151 5.498,-0.366 5.413,-0.582 5.281,-0.736 5.105,-0.829 4.928,-0.921 4.764,-0.979 4.612,-1.005 4.459,-1.029 4.256,-1.041 4,-1.041 l -4,0 0,-0.548 c 0,-0.67 0.24,-1.206 0.722,-1.607 0.481,-0.403 1.105,-0.603 1.872,-0.603 0.402,0 0.751,0.061 1.05,0.183 0.298,0.121 0.539,0.24 0.721,0.355 0.183,0.116 0.329,0.174 0.439,0.174 0.17,0 0.316,-0.076 0.438,-0.228 0.122,-0.153 0.183,-0.308 0.183,-0.466 0,-0.281 -0.278,-0.567 -0.831,-0.859 -0.554,-0.292 -1.24,-0.438 -2.055,-0.438 -1.193,0 -2.167,0.326 -2.922,0.977 -0.756,0.652 -1.133,1.507 -1.133,2.567"
             style="fill:#1d1d1b;fill-opacity:1;fill-rule:nonzero;stroke:none"
             id="path54" /></g><g
           id="g56"
           transform="translate(38.6294,16.251)"><path
             d="m 0,0 0,7.58 c 0,0.158 0.07,0.286 0.21,0.384 0.14,0.097 0.32,0.145 0.539,0.145 0.183,0 0.344,-0.052 0.484,-0.157 0.14,-0.105 0.21,-0.231 0.21,-0.38 l 0,-0.76 c 0.195,0.395 0.508,0.728 0.94,1 0.432,0.271 0.935,0.407 1.507,0.407 0.865,0 1.617,-0.344 2.256,-1.032 C 6.785,6.499 7.105,5.674 7.105,4.712 L 7.105,0 c 0,-0.171 -0.076,-0.305 -0.229,-0.401 -0.152,-0.098 -0.331,-0.147 -0.538,-0.147 -0.195,0 -0.369,0.049 -0.521,0.146 -0.152,0.096 -0.228,0.23 -0.228,0.401 l 0,4.7 C 5.589,5.246 5.382,5.737 4.968,6.175 4.554,6.612 4.067,6.831 3.507,6.831 2.983,6.831 2.521,6.634 2.119,6.239 1.717,5.844 1.516,5.331 1.516,4.699 l 0,-4.7 C 1.516,-0.135 1.437,-0.26 1.278,-0.375 1.12,-0.49 0.943,-0.548 0.749,-0.548 c -0.207,0 -0.384,0.055 -0.53,0.164 C 0.073,-0.273 0,-0.146 0,0"
             style="fill:#1d1d1b;fill-opacity:1;fill-rule:nonzero;stroke:none"
             id="path58" /></g><g
           id="g60"
           transform="translate(47.6699,18.4609)"><path
             d="M 0,0 0,9.406 C 0,9.553 0.079,9.677 0.237,9.781 0.396,9.884 0.566,9.937 0.749,9.937 0.943,9.937 1.12,9.884 1.279,9.781 1.437,9.677 1.516,9.553 1.516,9.406 l 0,-3.507 2.301,0 c 0.134,0 0.244,-0.06 0.329,-0.182 C 4.231,5.595 4.274,5.455 4.274,5.297 4.274,5.139 4.231,5.002 4.146,4.886 4.061,4.771 3.951,4.713 3.817,4.713 l -2.301,0 0,-4.671 c 0,-0.519 0.112,-0.884 0.338,-1.095 0.225,-0.211 0.618,-0.317 1.178,-0.317 l 0.566,0 c 0.207,0 0.368,-0.067 0.484,-0.199 0.116,-0.133 0.174,-0.295 0.174,-0.486 0,-0.189 -0.061,-0.354 -0.183,-0.494 -0.122,-0.139 -0.28,-0.209 -0.475,-0.209 l -0.566,0 C 1.011,-2.758 0,-1.839 0,0"
             style="fill:#1d1d1b;fill-opacity:1;fill-rule:nonzero;stroke:none"
             id="path62" /></g><g
           id="g64"
           transform="translate(53.2593,16.251)"><path
             d="m 0,0 0,7.58 c 0,0.158 0.07,0.286 0.21,0.384 0.14,0.097 0.32,0.145 0.539,0.145 0.194,0 0.359,-0.048 0.493,-0.147 0.134,-0.1 0.201,-0.229 0.201,-0.389 l 0,-0.87 c 0.219,0.419 0.541,0.776 0.968,1.072 0.426,0.296 0.901,0.444 1.424,0.444 l 0.622,0 C 4.615,8.219 4.751,8.148 4.868,8.006 4.983,7.864 5.041,7.7 5.041,7.516 5.041,7.331 4.983,7.17 4.868,7.034 4.751,6.898 4.615,6.831 4.457,6.831 l -0.622,0 C 3.214,6.831 2.672,6.582 2.21,6.084 1.747,5.586 1.516,4.942 1.516,4.152 l 0,-4.153 C 1.516,-0.135 1.44,-0.26 1.288,-0.375 1.135,-0.49 0.956,-0.548 0.749,-0.548 c -0.207,0 -0.384,0.055 -0.53,0.164 C 0.073,-0.273 0,-0.146 0,0"
             style="fill:#1d1d1b;fill-opacity:1;fill-rule:nonzero;stroke:none"
             id="path66" /></g><g
           id="g68"
           transform="translate(60.6196,20.6348)"><path
             d="m 0,0 3.379,0 c 0.317,0 0.53,0.039 0.64,0.118 0.109,0.079 0.164,0.235 0.164,0.466 0,0.548 -0.201,1.029 -0.603,1.443 C 3.178,2.441 2.685,2.648 2.101,2.648 1.528,2.648 1.035,2.456 0.621,2.073 0.207,1.689 0,1.217 0,0.657 L 0,0 Z m -1.516,-1.534 0,1.918 c 0,0.937 0.356,1.747 1.069,2.429 0.712,0.681 1.567,1.022 2.566,1.022 0.95,0 1.772,-0.317 2.465,-0.953 C 5.279,2.246 5.625,1.449 5.625,0.493 5.625,0.136 5.583,-0.151 5.498,-0.366 5.413,-0.582 5.281,-0.736 5.105,-0.829 4.928,-0.921 4.764,-0.979 4.612,-1.005 4.459,-1.029 4.256,-1.041 4,-1.041 l -4,0 0,-0.548 c 0,-0.67 0.24,-1.206 0.722,-1.607 0.481,-0.403 1.105,-0.603 1.872,-0.603 0.402,0 0.751,0.061 1.05,0.183 0.298,0.121 0.539,0.24 0.721,0.355 0.183,0.116 0.329,0.174 0.439,0.174 0.17,0 0.316,-0.076 0.438,-0.228 0.122,-0.153 0.183,-0.308 0.183,-0.466 0,-0.281 -0.278,-0.567 -0.831,-0.859 -0.554,-0.292 -1.24,-0.438 -2.055,-0.438 -1.193,0 -2.167,0.326 -2.922,0.977 -0.756,0.652 -1.133,1.507 -1.133,2.567"
             style="fill:#1d1d1b;fill-opacity:1;fill-rule:nonzero;stroke:none"
             id="path70" /></g><g
           id="g72"
           transform="translate(72.5459,19.1055)"><path
             d="m 0,0 c 0,-0.557 0.207,-1.056 0.621,-1.498 0.414,-0.441 0.895,-0.662 1.443,-0.662 0.536,0 1.017,0.202 1.443,0.608 0.426,0.406 0.639,0.759 0.639,1.062 l 0,2.343 c 0,0.628 -0.207,1.14 -0.621,1.534 C 3.111,3.779 2.63,3.977 2.083,3.977 1.522,3.977 1.035,3.759 0.621,3.322 0.207,2.887 0,2.396 0,1.853 L 0,0 Z m -1.516,-0.005 0,1.862 c 0,0.962 0.323,1.788 0.968,2.476 0.646,0.688 1.413,1.031 2.301,1.031 0.548,0 1.029,-0.135 1.443,-0.407 C 3.61,4.686 3.927,4.353 4.146,3.958 l 0,5.973 c 0,0.158 0.073,0.286 0.219,0.383 0.147,0.098 0.329,0.147 0.549,0.147 0.218,0 0.398,-0.049 0.538,-0.147 0.14,-0.097 0.21,-0.224 0.21,-0.382 l 0,-12.787 c 0,-0.146 -0.073,-0.274 -0.219,-0.383 -0.146,-0.11 -0.323,-0.164 -0.529,-0.164 -0.184,0 -0.345,0.055 -0.485,0.167 -0.14,0.11 -0.21,0.24 -0.21,0.388 l 0,0.742 C 4.012,-2.501 3.677,-2.84 3.215,-3.123 2.752,-3.406 2.247,-3.549 1.699,-3.549 c -0.853,0 -1.601,0.36 -2.247,1.078 -0.645,0.718 -0.968,1.54 -0.968,2.466"
             style="fill:#1d1d1b;fill-opacity:1;fill-rule:nonzero;stroke:none"
             id="path74" /></g><g
           id="g76"
           transform="translate(81.459,20.6348)"><path
             d="m 0,0 3.379,0 c 0.317,0 0.53,0.039 0.64,0.118 0.109,0.079 0.164,0.235 0.164,0.466 0,0.548 -0.201,1.029 -0.603,1.443 C 3.178,2.441 2.685,2.648 2.101,2.648 1.528,2.648 1.035,2.456 0.621,2.073 0.207,1.689 0,1.217 0,0.657 L 0,0 Z m -1.516,-1.534 0,1.918 c 0,0.937 0.356,1.747 1.069,2.429 0.712,0.681 1.567,1.022 2.566,1.022 0.95,0 1.772,-0.317 2.465,-0.953 C 5.279,2.246 5.625,1.449 5.625,0.493 5.625,0.136 5.583,-0.151 5.498,-0.366 5.413,-0.582 5.281,-0.736 5.105,-0.829 4.928,-0.921 4.764,-0.979 4.612,-1.005 4.459,-1.029 4.256,-1.041 4,-1.041 l -4,0 0,-0.548 c 0,-0.67 0.24,-1.206 0.722,-1.607 0.481,-0.403 1.105,-0.603 1.872,-0.603 0.402,0 0.751,0.061 1.05,0.183 0.298,0.121 0.539,0.24 0.721,0.355 0.183,0.116 0.329,0.174 0.439,0.174 0.17,0 0.316,-0.076 0.438,-0.228 0.122,-0.153 0.183,-0.308 0.183,-0.466 0,-0.281 -0.278,-0.567 -0.831,-0.859 -0.554,-0.292 -1.24,-0.438 -2.055,-0.438 -1.193,0 -2.167,0.326 -2.922,0.977 -0.756,0.652 -1.133,1.507 -1.133,2.567"
             style="fill:#1d1d1b;fill-opacity:1;fill-rule:nonzero;stroke:none"
             id="path78" /></g><g
           id="g80"
           transform="translate(92.1987,16.251)"><path
             d="M 0,0 0,7.58 C 0,7.738 0.07,7.866 0.21,7.964 0.35,8.061 0.53,8.109 0.749,8.109 0.943,8.109 1.108,8.06 1.242,7.961 1.376,7.862 1.443,7.732 1.443,7.572 l 0,-0.76 c 0.219,0.408 0.538,0.744 0.959,1.009 0.42,0.266 0.91,0.398 1.47,0.398 0.56,0 1.062,-0.169 1.507,-0.507 0.444,-0.338 0.776,-0.783 0.996,-1.336 0.304,0.602 0.706,1.06 1.205,1.373 0.499,0.314 1.023,0.47 1.57,0.47 0.853,0 1.586,-0.317 2.202,-0.949 0.614,-0.634 0.922,-1.487 0.922,-2.558 l 0,-4.712 c 0,-0.134 -0.076,-0.259 -0.229,-0.374 -0.152,-0.116 -0.332,-0.174 -0.538,-0.174 -0.195,0 -0.369,0.058 -0.521,0.173 -0.153,0.115 -0.228,0.24 -0.228,0.374 l 0,4.7 c 0,0.656 -0.192,1.175 -0.575,1.558 C 9.799,6.64 9.352,6.831 8.84,6.831 8.329,6.831 7.875,6.637 7.479,6.248 7.083,5.859 6.886,5.361 6.886,4.754 l 0,-4.774 C 6.886,-0.189 6.81,-0.32 6.657,-0.411 6.505,-0.503 6.326,-0.548 6.119,-0.548 5.924,-0.548 5.75,-0.503 5.598,-0.411 5.446,-0.32 5.37,-0.189 5.37,-0.02 l 0,4.755 C 5.37,5.343 5.184,5.844 4.812,6.239 4.441,6.634 3.994,6.831 3.47,6.831 2.947,6.831 2.49,6.637 2.101,6.248 1.71,5.859 1.516,5.343 1.516,4.699 l 0,-4.7 C 1.516,-0.135 1.44,-0.26 1.288,-0.375 1.135,-0.49 0.956,-0.548 0.749,-0.548 c -0.207,0 -0.384,0.055 -0.53,0.164 C 0.073,-0.273 0,-0.146 0,0"
             style="fill:#1d1d1b;fill-opacity:1;fill-rule:nonzero;stroke:none"
             id="path82" /></g><g
           id="g84"
           transform="translate(107.6318,19.1055)"><path
             d="m 0,0 c 0,-0.568 0.207,-1.071 0.621,-1.507 0.414,-0.435 0.901,-0.653 1.462,-0.653 0.571,0 1.064,0.221 1.479,0.662 0.414,0.442 0.621,0.941 0.621,1.498 l 0,1.853 C 4.183,2.396 3.976,2.887 3.562,3.322 3.147,3.759 2.654,3.977 2.083,3.977 1.51,3.977 1.02,3.759 0.612,3.322 0.204,2.887 0,2.396 0,1.853 L 0,0 Z m -1.516,-0.005 0,1.862 c 0,0.938 0.356,1.757 1.069,2.457 0.712,0.701 1.555,1.05 2.53,1.05 0.973,0 1.819,-0.346 2.538,-1.041 C 5.339,3.63 5.699,2.808 5.699,1.857 l 0,-1.862 c 0,-0.926 -0.363,-1.748 -1.087,-2.466 -0.725,-0.718 -1.568,-1.078 -2.529,-1.078 -0.963,0 -1.803,0.357 -2.521,1.069 -0.719,0.712 -1.078,1.537 -1.078,2.475"
             style="fill:#1d1d1b;fill-opacity:1;fill-rule:nonzero;stroke:none"
             id="path86" /></g><g
           id="g88"
           transform="translate(116.2344,19.1055)"><path
             d="m 0,0 c 0,-0.557 0.207,-1.056 0.621,-1.498 0.414,-0.441 0.895,-0.662 1.443,-0.662 0.536,0 1.017,0.202 1.443,0.608 0.426,0.406 0.639,0.759 0.639,1.062 l 0,2.343 c 0,0.628 -0.207,1.14 -0.621,1.534 C 3.111,3.779 2.63,3.977 2.083,3.977 1.522,3.977 1.035,3.759 0.621,3.322 0.207,2.887 0,2.396 0,1.853 L 0,0 Z m -1.516,-0.005 0,1.862 c 0,0.962 0.323,1.788 0.968,2.476 0.646,0.688 1.413,1.031 2.301,1.031 0.548,0 1.029,-0.135 1.443,-0.407 C 3.61,4.686 3.927,4.353 4.146,3.958 l 0,5.973 c 0,0.158 0.073,0.286 0.219,0.383 0.147,0.098 0.329,0.147 0.549,0.147 0.218,0 0.398,-0.049 0.538,-0.147 0.14,-0.097 0.21,-0.224 0.21,-0.382 l 0,-12.787 c 0,-0.146 -0.073,-0.274 -0.219,-0.383 -0.146,-0.11 -0.323,-0.164 -0.529,-0.164 -0.184,0 -0.345,0.055 -0.485,0.167 -0.14,0.11 -0.21,0.24 -0.21,0.388 l 0,0.742 C 4.012,-2.501 3.677,-2.84 3.215,-3.123 2.752,-3.406 2.247,-3.549 1.699,-3.549 c -0.853,0 -1.601,0.36 -2.247,1.078 -0.645,0.718 -0.968,1.54 -0.968,2.466"
             style="fill:#1d1d1b;fill-opacity:1;fill-rule:nonzero;stroke:none"
             id="path90" /></g><g
           id="g92"
           transform="translate(125.7319,26.9902)"><path
             d="M 0,0 C 0,0.183 0.079,0.317 0.238,0.402 L 2.375,1.534 C 2.448,1.559 2.508,1.571 2.557,1.571 2.703,1.571 2.825,1.507 2.922,1.379 3.02,1.252 3.069,1.108 3.069,0.95 3.069,0.743 2.983,0.597 2.813,0.512 L 0.749,-0.548 C 0.651,-0.597 0.584,-0.62 0.548,-0.62 0.402,-0.62 0.274,-0.557 0.165,-0.429 0.055,-0.301 0,-0.158 0,0 m -0.584,-6.355 3.378,0 c 0.317,0 0.53,0.039 0.64,0.118 0.109,0.079 0.164,0.234 0.164,0.466 0,0.547 -0.201,1.029 -0.602,1.443 -0.402,0.414 -0.895,0.621 -1.48,0.621 -0.572,0 -1.065,-0.192 -1.479,-0.575 -0.414,-0.384 -0.621,-0.857 -0.621,-1.416 l 0,-0.657 z M -2.1,-7.89 l 0,1.918 c 0,0.938 0.356,1.747 1.068,2.429 0.713,0.682 1.568,1.022 2.566,1.022 0.95,0 1.772,-0.317 2.466,-0.953 0.694,-0.635 1.041,-1.432 1.041,-2.388 0,-0.358 -0.042,-0.645 -0.127,-0.86 C 4.828,-6.937 4.697,-7.092 4.521,-7.185 4.344,-7.276 4.18,-7.335 4.027,-7.36 3.875,-7.385 3.671,-7.396 3.416,-7.396 l -4,0 0,-0.548 c 0,-0.67 0.24,-1.206 0.721,-1.608 0.481,-0.402 1.105,-0.602 1.872,-0.602 0.402,0 0.752,0.06 1.051,0.182 0.298,0.121 0.538,0.241 0.721,0.356 0.182,0.116 0.329,0.174 0.438,0.174 0.171,0 0.317,-0.077 0.439,-0.229 0.121,-0.152 0.182,-0.308 0.182,-0.466 0,-0.28 -0.277,-0.566 -0.831,-0.858 -0.554,-0.292 -1.239,-0.439 -2.054,-0.439 -1.194,0 -2.168,0.327 -2.923,0.978 -0.755,0.651 -1.132,1.507 -1.132,2.566"
             style="fill:#1d1d1b;fill-opacity:1;fill-rule:nonzero;stroke:none"
             id="path94" /></g><g
           id="g96"
           transform="translate(132.5083,16.251)"><path
             d="m 0,0 0,12.804 c 0,0.158 0.07,0.286 0.21,0.384 0.14,0.096 0.319,0.145 0.539,0.145 0.219,0 0.401,-0.049 0.547,-0.145 0.147,-0.098 0.22,-0.226 0.22,-0.384 L 1.516,0 c 0,-0.134 -0.077,-0.259 -0.228,-0.374 -0.153,-0.116 -0.332,-0.174 -0.539,-0.174 -0.207,0 -0.384,0.055 -0.53,0.164 C 0.073,-0.273 0,-0.146 0,0"
             style="fill:#1d1d1b;fill-opacity:1;fill-rule:nonzero;stroke:none"
             id="path98" /></g><g
           id="g100"
           transform="translate(136.2339,16.251)"><path
             d="m 0,0 0,7.58 c 0,0.158 0.073,0.286 0.219,0.384 0.146,0.097 0.323,0.145 0.53,0.145 0.219,0 0.402,-0.048 0.548,-0.145 C 1.443,7.866 1.516,7.738 1.516,7.58 L 1.516,0 C 1.516,-0.134 1.44,-0.259 1.288,-0.374 1.135,-0.49 0.956,-0.548 0.749,-0.548 c -0.207,0 -0.384,0.055 -0.53,0.164 C 0.073,-0.273 0,-0.146 0,0 m 0.082,10.749 c -0.189,0.176 -0.283,0.38 -0.283,0.611 0,0.232 0.092,0.433 0.274,0.604 0.183,0.17 0.408,0.255 0.676,0.255 0.255,0 0.475,-0.085 0.657,-0.255 C 1.589,11.793 1.68,11.592 1.68,11.36 1.68,11.129 1.589,10.925 1.406,10.749 1.224,10.572 1.004,10.484 0.749,10.484 c -0.256,0 -0.478,0.088 -0.667,0.265"
             style="fill:#1d1d1b;fill-opacity:1;fill-rule:nonzero;stroke:none"
             id="path102" /></g><g
           id="g104"
           transform="translate(139.2656,16.9453)"><path
             d="m 0,0 c 0,0.158 0.052,0.313 0.155,0.466 0.104,0.151 0.229,0.228 0.375,0.228 0.097,0 0.237,-0.077 0.42,-0.229 0.182,-0.153 0.444,-0.301 0.785,-0.447 0.341,-0.146 0.743,-0.219 1.206,-0.219 0.608,0 1.05,0.11 1.324,0.333 0.274,0.221 0.411,0.498 0.411,0.831 0,0.406 -0.153,0.728 -0.457,0.97 C 3.915,2.173 3.543,2.354 3.105,2.478 2.667,2.601 2.229,2.735 1.79,2.884 1.352,3.031 0.98,3.277 0.676,3.622 0.372,3.967 0.219,4.423 0.219,4.989 c 0,0.688 0.247,1.283 0.74,1.784 C 1.452,7.274 2.204,7.524 3.215,7.524 3.86,7.524 4.45,7.427 4.986,7.232 5.522,7.037 5.79,6.816 5.79,6.568 5.79,6.422 5.732,6.258 5.616,6.075 5.5,5.893 5.357,5.802 5.187,5.802 5.139,5.802 4.904,5.891 4.484,6.069 4.064,6.248 3.646,6.338 3.233,6.338 2.673,6.338 2.256,6.205 1.982,5.94 1.708,5.676 1.571,5.377 1.571,5.045 1.571,4.7 1.723,4.429 2.027,4.231 2.332,4.035 2.706,3.881 3.151,3.77 3.595,3.659 4.037,3.523 4.475,3.363 4.913,3.203 5.285,2.93 5.589,2.542 5.893,2.153 6.046,1.652 6.046,1.036 6.046,0.288 5.778,-0.303 5.242,-0.737 4.706,-1.172 3.957,-1.389 2.996,-1.389 2.167,-1.389 1.461,-1.239 0.877,-0.94 0.292,-0.643 0,-0.329 0,0"
             style="fill:#1d1d1b;fill-opacity:1;fill-rule:nonzero;stroke:none"
             id="path106" /></g><g
           id="g108"
           transform="translate(147.813,18.1318)"><path
             d="m 0,0 c 0,-0.456 0.128,-0.802 0.384,-1.036 0.256,-0.235 0.596,-0.352 1.023,-0.352 0.511,0 1.007,0.207 1.488,0.62 0.481,0.414 0.722,0.835 0.722,1.268 l 0,0.962 -0.639,0 C 2.624,1.462 2.32,1.452 2.064,1.434 1.809,1.415 1.543,1.378 1.27,1.323 0.996,1.268 0.77,1.187 0.594,1.082 0.417,0.978 0.274,0.836 0.165,0.657 0.055,0.478 0,0.259 0,0 m -1.534,-0.166 c 0,0.957 0.365,1.623 1.096,1.997 0.73,0.375 1.79,0.563 3.178,0.563 l 0.877,0 0,0.385 c 0,0.614 -0.168,1.147 -0.503,1.6 C 2.779,4.833 2.277,5.06 1.607,5.06 1.096,5.06 0.646,4.969 0.256,4.786 -0.134,4.604 -0.347,4.512 -0.383,4.512 c -0.171,0 -0.308,0.082 -0.411,0.247 -0.104,0.164 -0.156,0.338 -0.156,0.52 0,0.28 0.277,0.527 0.831,0.74 C 0.436,6.231 1.023,6.338 1.644,6.338 2.837,6.338 3.717,6 4.283,5.324 4.85,4.648 5.133,3.806 5.133,2.795 l 0,-4.676 c 0,-0.158 -0.071,-0.289 -0.211,-0.392 -0.14,-0.104 -0.319,-0.156 -0.538,-0.156 -0.195,0 -0.36,0.05 -0.493,0.152 -0.135,0.1 -0.202,0.227 -0.202,0.381 l 0,0.711 c -0.828,-0.926 -1.747,-1.39 -2.757,-1.39 -0.731,0 -1.325,0.205 -1.781,0.616 -0.457,0.41 -0.685,1.008 -0.685,1.793"
             style="fill:#1d1d1b;fill-opacity:1;fill-rule:nonzero;stroke:none"
             id="path110" /></g><g
           id="g112"
           transform="translate(154.8818,18.4609)"><path
             d="M 0,0 0,9.406 C 0,9.553 0.079,9.677 0.237,9.781 0.396,9.884 0.566,9.937 0.749,9.937 0.943,9.937 1.12,9.884 1.279,9.781 1.437,9.677 1.516,9.553 1.516,9.406 l 0,-3.507 2.301,0 c 0.134,0 0.244,-0.06 0.329,-0.182 C 4.231,5.595 4.274,5.455 4.274,5.297 4.274,5.139 4.231,5.002 4.146,4.886 4.061,4.771 3.951,4.713 3.817,4.713 l -2.301,0 0,-4.671 c 0,-0.519 0.112,-0.884 0.338,-1.095 0.225,-0.211 0.618,-0.317 1.178,-0.317 l 0.566,0 c 0.207,0 0.368,-0.067 0.484,-0.199 0.116,-0.133 0.174,-0.295 0.174,-0.486 0,-0.189 -0.061,-0.354 -0.183,-0.494 -0.122,-0.139 -0.28,-0.209 -0.475,-0.209 l -0.566,0 C 1.011,-2.758 0,-1.839 0,0"
             style="fill:#1d1d1b;fill-opacity:1;fill-rule:nonzero;stroke:none"
             id="path114" /></g><g
           id="g116"
           transform="translate(160.4707,16.251)"><path
             d="m 0,0 0,7.58 c 0,0.158 0.073,0.286 0.219,0.384 0.146,0.097 0.323,0.145 0.53,0.145 0.219,0 0.402,-0.048 0.548,-0.145 C 1.443,7.866 1.516,7.738 1.516,7.58 L 1.516,0 C 1.516,-0.134 1.44,-0.259 1.288,-0.374 1.135,-0.49 0.956,-0.548 0.749,-0.548 c -0.207,0 -0.384,0.055 -0.53,0.164 C 0.073,-0.273 0,-0.146 0,0 m 0.082,10.749 c -0.189,0.176 -0.283,0.38 -0.283,0.611 0,0.232 0.092,0.433 0.274,0.604 0.183,0.17 0.408,0.255 0.676,0.255 0.255,0 0.475,-0.085 0.657,-0.255 C 1.589,11.793 1.68,11.592 1.68,11.36 1.68,11.129 1.589,10.925 1.406,10.749 1.224,10.572 1.004,10.484 0.749,10.484 c -0.256,0 -0.478,0.088 -0.667,0.265"
             style="fill:#1d1d1b;fill-opacity:1;fill-rule:nonzero;stroke:none"
             id="path118" /></g><g
           id="g120"
           transform="translate(165.2192,19.1055)"><path
             d="m 0,0 c 0,-0.568 0.207,-1.071 0.621,-1.507 0.414,-0.435 0.901,-0.653 1.462,-0.653 0.571,0 1.064,0.221 1.479,0.662 0.414,0.442 0.621,0.941 0.621,1.498 l 0,1.853 C 4.183,2.396 3.976,2.887 3.562,3.322 3.147,3.759 2.654,3.977 2.083,3.977 1.51,3.977 1.02,3.759 0.612,3.322 0.204,2.887 0,2.396 0,1.853 L 0,0 Z m -1.516,-0.005 0,1.862 c 0,0.938 0.356,1.757 1.069,2.457 0.712,0.701 1.555,1.05 2.53,1.05 0.973,0 1.819,-0.346 2.538,-1.041 C 5.339,3.63 5.699,2.808 5.699,1.857 l 0,-1.862 c 0,-0.926 -0.363,-1.748 -1.087,-2.466 -0.725,-0.718 -1.568,-1.078 -2.529,-1.078 -0.963,0 -1.803,0.357 -2.521,1.069 -0.719,0.712 -1.078,1.537 -1.078,2.475"
             style="fill:#1d1d1b;fill-opacity:1;fill-rule:nonzero;stroke:none"
             id="path122" /></g><g
           id="g124"
           transform="translate(172.6343,16.251)"><path
             d="m 0,0 0,7.58 c 0,0.158 0.07,0.286 0.21,0.384 0.14,0.097 0.32,0.145 0.539,0.145 0.183,0 0.344,-0.052 0.484,-0.157 0.14,-0.105 0.21,-0.231 0.21,-0.38 l 0,-0.76 c 0.195,0.395 0.508,0.728 0.94,1 0.432,0.271 0.935,0.407 1.507,0.407 0.865,0 1.617,-0.344 2.256,-1.032 C 6.785,6.499 7.105,5.674 7.105,4.712 L 7.105,0 c 0,-0.171 -0.076,-0.305 -0.229,-0.401 -0.152,-0.098 -0.331,-0.147 -0.538,-0.147 -0.195,0 -0.369,0.049 -0.521,0.146 -0.152,0.096 -0.228,0.23 -0.228,0.401 l 0,4.7 C 5.589,5.246 5.382,5.737 4.968,6.175 4.554,6.612 4.067,6.831 3.507,6.831 2.983,6.831 2.521,6.634 2.119,6.239 1.717,5.844 1.516,5.331 1.516,4.699 l 0,-4.7 C 1.516,-0.135 1.437,-0.26 1.278,-0.375 1.12,-0.49 0.943,-0.548 0.749,-0.548 c -0.207,0 -0.384,0.055 -0.53,0.164 C 0.073,-0.273 0,-0.146 0,0"
             style="fill:#1d1d1b;fill-opacity:1;fill-rule:nonzero;stroke:none"
             id="path126" /></g><g
           id="g128"
           transform="translate(186.4419,20.6348)"><path
             d="m 0,0 3.379,0 c 0.317,0 0.53,0.039 0.64,0.118 0.109,0.079 0.164,0.235 0.164,0.466 0,0.548 -0.201,1.029 -0.603,1.443 C 3.178,2.441 2.685,2.648 2.101,2.648 1.528,2.648 1.035,2.456 0.621,2.073 0.207,1.689 0,1.217 0,0.657 L 0,0 Z m -1.516,-1.534 0,1.918 c 0,0.937 0.356,1.747 1.069,2.429 0.712,0.681 1.567,1.022 2.566,1.022 0.95,0 1.772,-0.317 2.465,-0.953 C 5.279,2.246 5.625,1.449 5.625,0.493 5.625,0.136 5.583,-0.151 5.498,-0.366 5.413,-0.582 5.281,-0.736 5.105,-0.829 4.928,-0.921 4.764,-0.979 4.612,-1.005 4.459,-1.029 4.256,-1.041 4,-1.041 l -4,0 0,-0.548 c 0,-0.67 0.24,-1.206 0.722,-1.607 0.481,-0.403 1.105,-0.603 1.872,-0.603 0.402,0 0.751,0.061 1.05,0.183 0.298,0.121 0.539,0.24 0.721,0.355 0.183,0.116 0.329,0.174 0.439,0.174 0.17,0 0.316,-0.076 0.438,-0.228 0.122,-0.153 0.183,-0.308 0.183,-0.466 0,-0.281 -0.278,-0.567 -0.831,-0.859 -0.554,-0.292 -1.24,-0.438 -2.055,-0.438 -1.193,0 -2.167,0.326 -2.922,0.977 -0.756,0.652 -1.133,1.507 -1.133,2.567"
             style="fill:#1d1d1b;fill-opacity:1;fill-rule:nonzero;stroke:none"
             id="path130" /></g><g
           id="g132"
           transform="translate(193.6021,18.4609)"><path
             d="M 0,0 0,9.406 C 0,9.553 0.079,9.677 0.237,9.781 0.396,9.884 0.566,9.937 0.749,9.937 0.943,9.937 1.12,9.884 1.279,9.781 1.437,9.677 1.516,9.553 1.516,9.406 l 0,-3.507 2.301,0 c 0.134,0 0.244,-0.06 0.329,-0.182 C 4.231,5.595 4.274,5.455 4.274,5.297 4.274,5.139 4.231,5.002 4.146,4.886 4.061,4.771 3.951,4.713 3.817,4.713 l -2.301,0 0,-4.671 c 0,-0.519 0.112,-0.884 0.338,-1.095 0.225,-0.211 0.618,-0.317 1.178,-0.317 l 0.566,0 c 0.207,0 0.368,-0.067 0.484,-0.199 0.116,-0.133 0.174,-0.295 0.174,-0.486 0,-0.189 -0.061,-0.354 -0.183,-0.494 -0.122,-0.139 -0.28,-0.209 -0.475,-0.209 l -0.566,0 C 1.011,-2.758 0,-1.839 0,0"
             style="fill:#1d1d1b;fill-opacity:1;fill-rule:nonzero;stroke:none"
             id="path134" /></g><g
           id="g136"
           transform="translate(203.9209,19.1055)"><path
             d="m 0,0 c 0,-0.557 0.207,-1.056 0.621,-1.498 0.414,-0.441 0.895,-0.662 1.443,-0.662 0.536,0 1.017,0.202 1.443,0.608 0.426,0.406 0.639,0.759 0.639,1.062 l 0,2.343 c 0,0.628 -0.207,1.14 -0.621,1.534 C 3.111,3.779 2.63,3.977 2.083,3.977 1.522,3.977 1.035,3.759 0.621,3.322 0.207,2.887 0,2.396 0,1.853 L 0,0 Z m -1.516,-0.005 0,1.862 c 0,0.962 0.323,1.788 0.968,2.476 0.646,0.688 1.413,1.031 2.301,1.031 0.548,0 1.029,-0.135 1.443,-0.407 C 3.61,4.686 3.927,4.353 4.146,3.958 l 0,5.973 c 0,0.158 0.073,0.286 0.219,0.383 0.147,0.098 0.329,0.147 0.549,0.147 0.218,0 0.398,-0.049 0.538,-0.147 0.14,-0.097 0.21,-0.224 0.21,-0.382 l 0,-12.787 c 0,-0.146 -0.073,-0.274 -0.219,-0.383 -0.146,-0.11 -0.323,-0.164 -0.529,-0.164 -0.184,0 -0.345,0.055 -0.485,0.167 -0.14,0.11 -0.21,0.24 -0.21,0.388 l 0,0.742 C 4.012,-2.501 3.677,-2.84 3.215,-3.123 2.752,-3.406 2.247,-3.549 1.699,-3.549 c -0.853,0 -1.601,0.36 -2.247,1.078 -0.645,0.718 -0.968,1.54 -0.968,2.466"
             style="fill:#1d1d1b;fill-opacity:1;fill-rule:nonzero;stroke:none"
             id="path138" /></g><g
           id="g140"
           transform="translate(212.834,20.6348)"><path
             d="m 0,0 3.379,0 c 0.317,0 0.53,0.039 0.64,0.118 0.109,0.079 0.164,0.235 0.164,0.466 0,0.548 -0.201,1.029 -0.603,1.443 C 3.178,2.441 2.685,2.648 2.101,2.648 1.528,2.648 1.035,2.456 0.621,2.073 0.207,1.689 0,1.217 0,0.657 L 0,0 Z m -1.516,-1.534 0,1.918 c 0,0.937 0.356,1.747 1.069,2.429 0.712,0.681 1.567,1.022 2.566,1.022 0.95,0 1.772,-0.317 2.465,-0.953 C 5.279,2.246 5.625,1.449 5.625,0.493 5.625,0.136 5.583,-0.151 5.498,-0.366 5.413,-0.582 5.281,-0.736 5.105,-0.829 4.928,-0.921 4.764,-0.979 4.612,-1.005 4.459,-1.029 4.256,-1.041 4,-1.041 l -4,0 0,-0.548 c 0,-0.67 0.24,-1.206 0.722,-1.607 0.481,-0.403 1.105,-0.603 1.872,-0.603 0.402,0 0.751,0.061 1.05,0.183 0.298,0.121 0.539,0.24 0.721,0.355 0.183,0.116 0.329,0.174 0.439,0.174 0.17,0 0.316,-0.076 0.438,-0.228 0.122,-0.153 0.183,-0.308 0.183,-0.466 0,-0.281 -0.278,-0.567 -0.831,-0.859 -0.554,-0.292 -1.24,-0.438 -2.055,-0.438 -1.193,0 -2.167,0.326 -2.922,0.977 -0.756,0.652 -1.133,1.507 -1.133,2.567"
             style="fill:#1d1d1b;fill-opacity:1;fill-rule:nonzero;stroke:none"
             id="path142" /></g><g
           id="g144"
           transform="translate(223.0435,16.9453)"><path
             d="M 0,0 C 0,0.158 0.052,0.313 0.155,0.466 0.259,0.617 0.384,0.694 0.529,0.694 0.627,0.694 0.768,0.617 0.95,0.465 1.133,0.312 1.395,0.164 1.735,0.018 2.076,-0.128 2.478,-0.201 2.94,-0.201 c 0.61,0 1.051,0.11 1.325,0.333 0.275,0.221 0.411,0.498 0.411,0.831 0,0.406 -0.152,0.728 -0.457,0.97 C 3.915,2.173 3.543,2.354 3.105,2.478 2.667,2.601 2.229,2.735 1.79,2.884 1.352,3.031 0.98,3.277 0.676,3.622 0.371,3.967 0.22,4.423 0.22,4.989 0.22,5.677 0.466,6.272 0.959,6.773 1.452,7.274 2.204,7.524 3.215,7.524 3.86,7.524 4.451,7.427 4.987,7.232 5.523,7.037 5.791,6.816 5.791,6.568 5.791,6.422 5.733,6.258 5.617,6.075 5.501,5.893 5.358,5.802 5.188,5.802 5.139,5.802 4.905,5.891 4.485,6.069 4.063,6.248 3.646,6.338 3.233,6.338 2.673,6.338 2.256,6.205 1.981,5.94 1.708,5.676 1.571,5.377 1.571,5.045 1.571,4.7 1.723,4.429 2.027,4.231 2.332,4.035 2.706,3.881 3.15,3.77 3.595,3.659 4.036,3.523 4.475,3.363 4.914,3.203 5.285,2.93 5.589,2.542 5.894,2.153 6.046,1.652 6.046,1.036 6.046,0.288 5.778,-0.303 5.243,-0.737 4.707,-1.172 3.957,-1.389 2.995,-1.389 2.167,-1.389 1.461,-1.239 0.877,-0.94 0.292,-0.643 0,-0.329 0,0"
             style="fill:#1d1d1b;fill-opacity:1;fill-rule:nonzero;stroke:none"
             id="path146" /></g><g
           id="g148"
           transform="translate(230.624,16.251)"><path
             d="m 0,0 0,7.58 c 0,0.158 0.073,0.286 0.22,0.384 0.146,0.097 0.322,0.145 0.529,0.145 0.22,0 0.402,-0.048 0.548,-0.145 C 1.443,7.866 1.517,7.738 1.517,7.58 L 1.517,0 C 1.517,-0.134 1.44,-0.259 1.288,-0.374 1.136,-0.49 0.956,-0.548 0.749,-0.548 0.542,-0.548 0.366,-0.493 0.22,-0.384 0.073,-0.273 0,-0.146 0,0 m 0.083,10.749 c -0.189,0.176 -0.283,0.38 -0.283,0.611 0,0.232 0.091,0.433 0.273,0.604 0.183,0.17 0.408,0.255 0.676,0.255 0.256,0 0.476,-0.085 0.658,-0.255 0.183,-0.171 0.274,-0.372 0.274,-0.604 0,-0.231 -0.091,-0.435 -0.274,-0.611 -0.182,-0.177 -0.402,-0.265 -0.658,-0.265 -0.256,0 -0.478,0.088 -0.666,0.265"
             style="fill:#1d1d1b;fill-opacity:1;fill-rule:nonzero;stroke:none"
             id="path150" /></g><g
           id="g152"
           transform="translate(234.1855,16.251)"><path
             d="M 0,0 0,7.58 C 0,7.738 0.07,7.866 0.211,7.964 0.351,8.061 0.53,8.109 0.749,8.109 0.944,8.109 1.108,8.06 1.242,7.961 1.376,7.862 1.443,7.732 1.443,7.572 l 0,-0.76 c 0.219,0.408 0.539,0.744 0.959,1.009 0.42,0.266 0.911,0.398 1.47,0.398 0.561,0 1.063,-0.169 1.507,-0.507 0.444,-0.338 0.776,-0.783 0.996,-1.336 0.304,0.602 0.706,1.06 1.205,1.373 0.499,0.314 1.024,0.47 1.571,0.47 0.852,0 1.586,-0.317 2.201,-0.949 0.615,-0.634 0.922,-1.487 0.922,-2.558 l 0,-4.712 c 0,-0.134 -0.076,-0.259 -0.228,-0.374 -0.152,-0.116 -0.332,-0.174 -0.539,-0.174 -0.194,0 -0.368,0.058 -0.521,0.173 -0.152,0.115 -0.227,0.24 -0.227,0.374 l 0,4.7 c 0,0.656 -0.193,1.175 -0.576,1.558 C 9.8,6.64 9.352,6.831 8.841,6.831 8.329,6.831 7.875,6.637 7.479,6.248 7.084,5.859 6.886,5.361 6.886,4.754 l 0,-4.774 c 0,-0.169 -0.076,-0.3 -0.228,-0.391 -0.152,-0.092 -0.332,-0.137 -0.539,-0.137 -0.195,0 -0.368,0.045 -0.52,0.137 C 5.446,-0.32 5.37,-0.189 5.37,-0.02 l 0,4.755 C 5.37,5.343 5.185,5.844 4.813,6.239 4.441,6.634 3.994,6.831 3.471,6.831 2.947,6.831 2.49,6.637 2.101,6.248 1.711,5.859 1.517,5.343 1.517,4.699 l 0,-4.7 C 1.517,-0.135 1.44,-0.26 1.288,-0.375 1.136,-0.49 0.956,-0.548 0.749,-0.548 0.542,-0.548 0.366,-0.493 0.22,-0.384 0.073,-0.273 0,-0.146 0,0"
             style="fill:#1d1d1b;fill-opacity:1;fill-rule:nonzero;stroke:none"
             id="path154" /></g><g
           id="g156"
           transform="translate(248.3594,19.0635)"><path
             d="M 0,0 0,4.749 C 0,4.896 0.075,5.023 0.228,5.133 0.38,5.242 0.56,5.297 0.767,5.297 0.961,5.297 1.135,5.239 1.287,5.124 1.439,5.009 1.516,4.884 1.516,4.751 l 0,-4.737 c 0,-0.547 0.207,-1.039 0.621,-1.477 0.414,-0.436 0.907,-0.655 1.479,-0.655 0.56,0 1.047,0.215 1.461,0.646 0.414,0.432 0.621,0.927 0.621,1.486 l 0,4.755 c 0,0.133 0.076,0.254 0.229,0.364 0.152,0.109 0.331,0.164 0.539,0.164 0.219,0 0.398,-0.052 0.538,-0.155 0.14,-0.104 0.21,-0.229 0.21,-0.374 L 7.214,0 c 0,-0.937 -0.356,-1.756 -1.068,-2.456 -0.712,-0.7 -1.556,-1.051 -2.53,-1.051 -0.986,0 -1.836,0.351 -2.548,1.051 C 0.355,-1.756 0,-0.937 0,0"
             style="fill:#1d1d1b;fill-opacity:1;fill-rule:nonzero;stroke:none"
             id="path158" /></g><g
           id="g160"
           transform="translate(257.71,16.251)"><path
             d="m 0,0 0,12.804 c 0,0.158 0.069,0.286 0.21,0.384 0.14,0.096 0.319,0.145 0.539,0.145 0.219,0 0.401,-0.049 0.548,-0.145 0.145,-0.098 0.219,-0.226 0.219,-0.384 L 1.516,0 c 0,-0.134 -0.077,-0.259 -0.229,-0.374 -0.152,-0.116 -0.332,-0.174 -0.538,-0.174 -0.208,0 -0.384,0.055 -0.53,0.164 C 0.073,-0.273 0,-0.146 0,0"
             style="fill:#1d1d1b;fill-opacity:1;fill-rule:nonzero;stroke:none"
             id="path162" /></g><g
           id="g164"
           transform="translate(262.4043,18.1318)"><path
             d="m 0,0 c 0,-0.456 0.128,-0.802 0.383,-1.036 0.256,-0.235 0.596,-0.352 1.023,-0.352 0.512,0 1.007,0.207 1.489,0.62 0.481,0.414 0.721,0.835 0.721,1.268 l 0,0.962 -0.639,0 C 2.624,1.462 2.319,1.452 2.063,1.434 1.808,1.415 1.543,1.378 1.27,1.323 0.995,1.268 0.77,1.187 0.594,1.082 0.417,0.978 0.273,0.836 0.164,0.657 0.055,0.478 0,0.259 0,0 m -1.534,-0.166 c 0,0.957 0.365,1.623 1.096,1.997 0.73,0.375 1.79,0.563 3.177,0.563 l 0.877,0 0,0.385 c 0,0.614 -0.168,1.147 -0.502,1.6 C 2.779,4.833 2.276,5.06 1.607,5.06 1.096,5.06 0.645,4.969 0.256,4.786 -0.135,4.604 -0.348,4.512 -0.384,4.512 c -0.171,0 -0.307,0.082 -0.411,0.247 -0.103,0.164 -0.155,0.338 -0.155,0.52 0,0.28 0.277,0.527 0.831,0.74 C 0.435,6.231 1.022,6.338 1.644,6.338 2.837,6.338 3.717,6 4.283,5.324 4.849,4.648 5.132,3.806 5.132,2.795 l 0,-4.676 c 0,-0.158 -0.07,-0.289 -0.21,-0.392 -0.14,-0.104 -0.319,-0.156 -0.539,-0.156 -0.195,0 -0.359,0.05 -0.493,0.152 -0.134,0.1 -0.201,0.227 -0.201,0.381 l 0,0.711 c -0.828,-0.926 -1.748,-1.39 -2.757,-1.39 -0.732,0 -1.325,0.205 -1.782,0.616 -0.457,0.41 -0.684,1.008 -0.684,1.793"
             style="fill:#1d1d1b;fill-opacity:1;fill-rule:nonzero;stroke:none"
             id="path166" /></g><g
           id="g168"
           transform="translate(269.4727,18.4609)"><path
             d="M 0,0 0,9.406 C 0,9.553 0.079,9.677 0.237,9.781 0.396,9.884 0.566,9.937 0.749,9.937 0.943,9.937 1.12,9.884 1.278,9.781 1.437,9.677 1.516,9.553 1.516,9.406 l 0,-3.507 2.301,0 c 0.134,0 0.244,-0.06 0.329,-0.182 C 4.231,5.595 4.274,5.455 4.274,5.297 4.274,5.139 4.231,5.002 4.146,4.886 4.061,4.771 3.951,4.713 3.817,4.713 l -2.301,0 0,-4.671 c 0,-0.519 0.113,-0.884 0.338,-1.095 0.225,-0.211 0.618,-0.317 1.178,-0.317 l 0.567,0 c 0.206,0 0.368,-0.067 0.483,-0.199 0.116,-0.133 0.174,-0.295 0.174,-0.486 0,-0.189 -0.062,-0.354 -0.183,-0.494 -0.122,-0.139 -0.28,-0.209 -0.474,-0.209 l -0.567,0 C 1.011,-2.758 0,-1.839 0,0"
             style="fill:#1d1d1b;fill-opacity:1;fill-rule:nonzero;stroke:none"
             id="path170" /></g><g
           id="g172"
           transform="translate(275.0605,16.251)"><path
             d="m 0,0 0,7.58 c 0,0.158 0.073,0.286 0.22,0.384 0.146,0.097 0.322,0.145 0.529,0.145 0.22,0 0.402,-0.048 0.548,-0.145 C 1.443,7.866 1.517,7.738 1.517,7.58 L 1.517,0 C 1.517,-0.134 1.44,-0.259 1.288,-0.374 1.136,-0.49 0.956,-0.548 0.749,-0.548 0.542,-0.548 0.366,-0.493 0.22,-0.384 0.073,-0.273 0,-0.146 0,0 m 0.083,10.749 c -0.189,0.176 -0.283,0.38 -0.283,0.611 0,0.232 0.091,0.433 0.273,0.604 0.183,0.17 0.408,0.255 0.676,0.255 0.256,0 0.476,-0.085 0.658,-0.255 0.183,-0.171 0.274,-0.372 0.274,-0.604 0,-0.231 -0.091,-0.435 -0.274,-0.611 -0.182,-0.177 -0.402,-0.265 -0.658,-0.265 -0.256,0 -0.478,0.088 -0.666,0.265"
             style="fill:#1d1d1b;fill-opacity:1;fill-rule:nonzero;stroke:none"
             id="path174" /></g><g
           id="g176"
           transform="translate(279.8096,19.1055)"><path
             d="m 0,0 c 0,-0.568 0.207,-1.071 0.621,-1.507 0.414,-0.435 0.901,-0.653 1.461,-0.653 0.572,0 1.065,0.221 1.48,0.662 0.414,0.442 0.621,0.941 0.621,1.498 l 0,1.853 C 4.183,2.396 3.976,2.887 3.562,3.322 3.147,3.759 2.654,3.977 2.082,3.977 1.51,3.977 1.02,3.759 0.612,3.322 0.204,2.887 0,2.396 0,1.853 L 0,0 Z m -1.516,-0.005 0,1.862 c 0,0.938 0.357,1.757 1.069,2.457 0.712,0.701 1.555,1.05 2.529,1.05 0.975,0 1.82,-0.346 2.539,-1.041 C 5.34,3.63 5.698,2.808 5.698,1.857 l 0,-1.862 c 0,-0.926 -0.362,-1.748 -1.086,-2.466 -0.724,-0.718 -1.568,-1.078 -2.53,-1.078 -0.962,0 -1.802,0.357 -2.52,1.069 -0.719,0.712 -1.078,1.537 -1.078,2.475"
             style="fill:#1d1d1b;fill-opacity:1;fill-rule:nonzero;stroke:none"
             id="path178" /></g><g
           id="g180"
           transform="translate(287.2246,16.251)"><path
             d="m 0,0 0,7.58 c 0,0.158 0.07,0.286 0.211,0.384 0.14,0.097 0.319,0.145 0.538,0.145 0.183,0 0.344,-0.052 0.484,-0.157 0.14,-0.105 0.21,-0.231 0.21,-0.38 l 0,-0.76 c 0.195,0.395 0.508,0.728 0.941,1 0.432,0.271 0.934,0.407 1.507,0.407 0.864,0 1.616,-0.344 2.255,-1.032 C 6.786,6.499 7.105,5.674 7.105,4.712 L 7.105,0 c 0,-0.171 -0.076,-0.305 -0.228,-0.401 -0.152,-0.098 -0.332,-0.147 -0.539,-0.147 -0.194,0 -0.368,0.049 -0.521,0.146 -0.152,0.096 -0.227,0.23 -0.227,0.401 l 0,4.7 C 5.59,5.246 5.382,5.737 4.969,6.175 4.555,6.612 4.067,6.831 3.507,6.831 2.983,6.831 2.521,6.634 2.119,6.239 1.718,5.844 1.517,5.331 1.517,4.699 l 0,-4.7 C 1.517,-0.135 1.437,-0.26 1.279,-0.375 1.12,-0.49 0.944,-0.548 0.749,-0.548 0.542,-0.548 0.366,-0.493 0.22,-0.384 0.073,-0.273 0,-0.146 0,0"
             style="fill:#1d1d1b;fill-opacity:1;fill-rule:nonzero;stroke:none"
             id="path182" /></g><g
           id="g184"
           transform="translate(301.0332,19.1055)"><path
             d="m 0,0 c 0,-0.557 0.207,-1.056 0.621,-1.498 0.414,-0.441 0.896,-0.662 1.443,-0.662 0.536,0 1.017,0.202 1.443,0.608 0.426,0.406 0.639,0.759 0.639,1.062 l 0,2.343 c 0,0.628 -0.207,1.14 -0.621,1.534 C 3.111,3.779 2.63,3.977 2.082,3.977 1.522,3.977 1.035,3.759 0.621,3.322 0.207,2.887 0,2.396 0,1.853 L 0,0 Z m -1.516,-0.005 0,1.862 c 0,0.962 0.323,1.788 0.968,2.476 0.646,0.688 1.412,1.031 2.302,1.031 0.548,0 1.028,-0.135 1.442,-0.407 C 3.61,4.686 3.927,4.353 4.146,3.958 l 0,5.973 c 0,0.158 0.074,0.286 0.219,0.383 0.147,0.098 0.329,0.147 0.548,0.147 0.22,0 0.399,-0.049 0.539,-0.147 0.14,-0.097 0.21,-0.224 0.21,-0.382 l 0,-12.787 c 0,-0.146 -0.073,-0.274 -0.219,-0.383 -0.146,-0.11 -0.323,-0.164 -0.53,-0.164 -0.183,0 -0.344,0.055 -0.483,0.167 -0.141,0.11 -0.21,0.24 -0.21,0.388 l 0,0.742 C 4.012,-2.501 3.678,-2.84 3.215,-3.123 2.752,-3.406 2.247,-3.549 1.699,-3.549 c -0.852,0 -1.601,0.36 -2.247,1.078 -0.645,0.718 -0.968,1.54 -0.968,2.466"
             style="fill:#1d1d1b;fill-opacity:1;fill-rule:nonzero;stroke:none"
             id="path186" /></g><g
           id="g188"
           transform="translate(309.9453,20.6348)"><path
             d="m 0,0 3.379,0 c 0.316,0 0.53,0.039 0.64,0.118 0.109,0.079 0.164,0.235 0.164,0.466 0,0.548 -0.202,1.029 -0.603,1.443 C 3.178,2.441 2.685,2.648 2.101,2.648 1.528,2.648 1.035,2.456 0.621,2.073 0.207,1.689 0,1.217 0,0.657 L 0,0 Z m -1.516,-1.534 0,1.918 c 0,0.937 0.357,1.747 1.069,2.429 0.712,0.681 1.567,1.022 2.566,1.022 0.949,0 1.772,-0.317 2.466,-0.953 C 5.278,2.246 5.626,1.449 5.626,0.493 5.626,0.136 5.583,-0.151 5.498,-0.366 5.412,-0.582 5.281,-0.736 5.105,-0.829 4.929,-0.921 4.764,-0.979 4.612,-1.005 4.46,-1.029 4.256,-1.041 4,-1.041 l -4,0 0,-0.548 c 0,-0.67 0.24,-1.206 0.722,-1.607 0.48,-0.403 1.104,-0.603 1.872,-0.603 0.401,0 0.752,0.061 1.05,0.183 0.298,0.121 0.539,0.24 0.721,0.355 0.183,0.116 0.329,0.174 0.439,0.174 0.171,0 0.316,-0.076 0.438,-0.228 0.121,-0.153 0.183,-0.308 0.183,-0.466 0,-0.281 -0.278,-0.567 -0.831,-0.859 -0.555,-0.292 -1.24,-0.438 -2.055,-0.438 -1.193,0 -2.168,0.326 -2.923,0.977 -0.755,0.652 -1.132,1.507 -1.132,2.567"
             style="fill:#1d1d1b;fill-opacity:1;fill-rule:nonzero;stroke:none"
             id="path190" /></g><g
           id="g192"
           transform="translate(320.21,17.584)"><path
             d="m 0,0 c 0,0.195 0.07,0.384 0.21,0.566 0.14,0.183 0.295,0.275 0.466,0.275 0.109,0 0.25,-0.076 0.42,-0.229 0.171,-0.152 0.347,-0.323 0.53,-0.511 0.183,-0.189 0.469,-0.36 0.858,-0.511 0.39,-0.152 0.829,-0.229 1.315,-0.229 0.792,0 1.413,0.192 1.863,0.576 0.45,0.383 0.676,0.946 0.676,1.689 0,0.67 -0.207,1.215 -0.621,1.635 C 5.303,3.681 4.804,4 4.22,4.22 3.635,4.438 3.047,4.673 2.457,4.923 1.866,5.172 1.363,5.556 0.95,6.073 c -0.414,0.518 -0.621,1.185 -0.621,2 0,0.64 0.121,1.198 0.365,1.671 0.243,0.474 0.57,0.831 0.978,1.07 0.407,0.241 0.831,0.416 1.268,0.527 0.439,0.111 0.908,0.166 1.407,0.166 0.755,0 1.476,-0.11 2.165,-0.328 C 7.199,10.96 7.544,10.656 7.544,10.27 7.544,10.098 7.482,9.914 7.36,9.719 7.239,9.522 7.081,9.425 6.886,9.425 6.837,9.425 6.558,9.54 6.046,9.771 5.534,10.003 4.968,10.119 4.347,10.119 3.604,10.119 3.005,9.967 2.548,9.662 2.092,9.357 1.863,8.877 1.863,8.22 1.863,7.659 2.07,7.206 2.484,6.858 2.898,6.512 3.4,6.234 3.991,6.027 4.581,5.82 5.169,5.583 5.754,5.315 6.338,5.048 6.837,4.618 7.251,4.027 7.665,3.437 7.872,2.686 7.872,1.772 c 0,-1.254 -0.365,-2.201 -1.096,-2.84 -0.73,-0.64 -1.698,-0.959 -2.904,-0.959 -1.084,0 -2,0.227 -2.749,0.682 C 0.375,-0.891 0,-0.442 0,0"
             style="fill:#1d1d1b;fill-opacity:1;fill-rule:nonzero;stroke:none"
             id="path194" /></g><g
           id="g196"
           transform="translate(329.708,18.4609)"><path
             d="M 0,0 0,9.406 C 0,9.553 0.079,9.677 0.237,9.781 0.396,9.884 0.566,9.937 0.749,9.937 0.943,9.937 1.12,9.884 1.278,9.781 1.437,9.677 1.516,9.553 1.516,9.406 l 0,-3.507 2.301,0 c 0.134,0 0.244,-0.06 0.329,-0.182 C 4.231,5.595 4.274,5.455 4.274,5.297 4.274,5.139 4.231,5.002 4.146,4.886 4.061,4.771 3.951,4.713 3.817,4.713 l -2.301,0 0,-4.671 c 0,-0.519 0.113,-0.884 0.338,-1.095 0.225,-0.211 0.618,-0.317 1.178,-0.317 l 0.567,0 c 0.206,0 0.368,-0.067 0.483,-0.199 0.116,-0.133 0.174,-0.295 0.174,-0.486 0,-0.189 -0.062,-0.354 -0.183,-0.494 -0.122,-0.139 -0.28,-0.209 -0.474,-0.209 l -0.567,0 C 1.011,-2.758 0,-1.839 0,0"
             style="fill:#1d1d1b;fill-opacity:1;fill-rule:nonzero;stroke:none"
             id="path198" /></g><g
           id="g200"
           transform="translate(335.2969,16.251)"><path
             d="m 0,0 0,7.58 c 0,0.158 0.07,0.286 0.211,0.384 0.14,0.097 0.319,0.145 0.538,0.145 0.195,0 0.359,-0.048 0.493,-0.147 0.134,-0.1 0.201,-0.229 0.201,-0.389 l 0,-0.87 c 0.219,0.419 0.542,0.776 0.968,1.072 0.427,0.296 0.902,0.444 1.425,0.444 l 0.621,0 C 4.615,8.219 4.752,8.148 4.868,8.006 4.983,7.864 5.041,7.7 5.041,7.516 5.041,7.331 4.983,7.17 4.868,7.034 4.752,6.898 4.615,6.831 4.457,6.831 l -0.621,0 C 3.215,6.831 2.673,6.582 2.211,6.084 1.748,5.586 1.517,4.942 1.517,4.152 l 0,-4.153 C 1.517,-0.135 1.44,-0.26 1.288,-0.375 1.136,-0.49 0.956,-0.548 0.749,-0.548 0.542,-0.548 0.366,-0.493 0.22,-0.384 0.073,-0.273 0,-0.146 0,0"
             style="fill:#1d1d1b;fill-opacity:1;fill-rule:nonzero;stroke:none"
             id="path202" /></g><g
           id="g204"
           transform="translate(342.4385,18.1318)"><path
             d="m 0,0 c 0,-0.456 0.128,-0.802 0.383,-1.036 0.256,-0.235 0.596,-0.352 1.023,-0.352 0.512,0 1.007,0.207 1.489,0.62 0.481,0.414 0.721,0.835 0.721,1.268 l 0,0.962 -0.639,0 C 2.624,1.462 2.319,1.452 2.063,1.434 1.808,1.415 1.543,1.378 1.27,1.323 0.995,1.268 0.77,1.187 0.594,1.082 0.417,0.978 0.273,0.836 0.164,0.657 0.055,0.478 0,0.259 0,0 m -1.534,-0.166 c 0,0.957 0.365,1.623 1.096,1.997 0.73,0.375 1.79,0.563 3.177,0.563 l 0.877,0 0,0.385 c 0,0.614 -0.168,1.147 -0.502,1.6 C 2.779,4.833 2.276,5.06 1.607,5.06 1.096,5.06 0.645,4.969 0.256,4.786 -0.135,4.604 -0.348,4.512 -0.384,4.512 c -0.171,0 -0.307,0.082 -0.411,0.247 -0.103,0.164 -0.155,0.338 -0.155,0.52 0,0.28 0.277,0.527 0.831,0.74 C 0.435,6.231 1.022,6.338 1.644,6.338 2.837,6.338 3.717,6 4.283,5.324 4.849,4.648 5.132,3.806 5.132,2.795 l 0,-4.676 c 0,-0.158 -0.07,-0.289 -0.21,-0.392 -0.14,-0.104 -0.319,-0.156 -0.539,-0.156 -0.195,0 -0.359,0.05 -0.493,0.152 -0.134,0.1 -0.201,0.227 -0.201,0.381 l 0,0.711 c -0.828,-0.926 -1.748,-1.39 -2.757,-1.39 -0.732,0 -1.325,0.205 -1.782,0.616 -0.457,0.41 -0.684,1.008 -0.684,1.793"
             style="fill:#1d1d1b;fill-opacity:1;fill-rule:nonzero;stroke:none"
             id="path206" /></g><g
           id="g208"
           transform="translate(349.0137,16.9453)"><path
             d="M 0,0 C 0,0.158 0.052,0.313 0.155,0.466 0.259,0.617 0.384,0.694 0.529,0.694 0.627,0.694 0.768,0.617 0.95,0.465 1.133,0.312 1.395,0.164 1.735,0.018 2.076,-0.128 2.478,-0.201 2.94,-0.201 c 0.61,0 1.051,0.11 1.325,0.333 0.274,0.221 0.411,0.498 0.411,0.831 0,0.406 -0.153,0.728 -0.457,0.97 C 3.915,2.173 3.543,2.354 3.105,2.478 2.667,2.601 2.229,2.735 1.79,2.884 1.352,3.031 0.98,3.277 0.676,3.622 0.371,3.967 0.22,4.423 0.22,4.989 0.22,5.677 0.466,6.272 0.959,6.773 1.452,7.274 2.204,7.524 3.215,7.524 3.86,7.524 4.45,7.427 4.986,7.232 5.522,7.037 5.79,6.816 5.79,6.568 5.79,6.422 5.732,6.258 5.616,6.075 5.501,5.893 5.357,5.802 5.187,5.802 5.139,5.802 4.904,5.891 4.484,6.069 4.063,6.248 3.646,6.338 3.233,6.338 2.673,6.338 2.256,6.205 1.981,5.94 1.708,5.676 1.571,5.377 1.571,5.045 1.571,4.7 1.723,4.429 2.027,4.231 2.332,4.035 2.706,3.881 3.15,3.77 3.595,3.659 4.036,3.523 4.475,3.363 4.913,3.203 5.284,2.93 5.589,2.542 5.894,2.153 6.046,1.652 6.046,1.036 6.046,0.288 5.777,-0.303 5.242,-0.737 4.706,-1.172 3.957,-1.389 2.995,-1.389 2.167,-1.389 1.461,-1.239 0.877,-0.94 0.292,-0.643 0,-0.329 0,0"
             style="fill:#1d1d1b;fill-opacity:1;fill-rule:nonzero;stroke:none"
             id="path210" /></g><g
           id="g212"
           transform="translate(358.1279,18.6152)"><path
             d="m 0,0 c 0,-0.303 0.213,-0.656 0.639,-1.062 0.425,-0.406 0.907,-0.608 1.443,-0.608 0.548,0 1.028,0.221 1.442,0.662 0.414,0.443 0.622,0.942 0.622,1.498 l 0,1.853 c 0,0.544 -0.208,1.034 -0.622,1.47 C 3.11,4.249 2.623,4.467 2.063,4.467 1.516,4.467 1.034,4.27 0.62,3.877 0.206,3.483 0,2.972 0,2.343 L 0,0 Z m -1.517,-2.365 0,12.787 c 0,0.158 0.071,0.285 0.21,0.383 0.14,0.097 0.321,0.146 0.539,0.146 0.219,0 0.402,-0.049 0.548,-0.146 C -0.073,10.707 0,10.579 0,10.421 L 0,4.448 c 0.219,0.395 0.535,0.728 0.949,0.999 0.414,0.272 0.896,0.407 1.444,0.407 0.888,0 1.655,-0.343 2.3,-1.031 C 5.339,4.135 5.661,3.31 5.661,2.348 l 0,-1.863 C 5.661,-0.44 5.339,-1.263 4.693,-1.98 4.048,-2.699 3.299,-3.059 2.447,-3.059 c -0.548,0 -1.053,0.143 -1.516,0.426 -0.463,0.283 -0.797,0.622 -1.004,1.018 l 0,-0.741 c 0,-0.149 -0.071,-0.279 -0.21,-0.389 -0.141,-0.111 -0.302,-0.167 -0.485,-0.167 -0.207,0 -0.383,0.055 -0.529,0.164 -0.146,0.109 -0.22,0.237 -0.22,0.383"
             style="fill:#1d1d1b;fill-opacity:1;fill-rule:nonzero;stroke:none"
             id="path214" /></g><g
           id="g216"
           transform="translate(366.6934,19.1055)"><path
             d="m 0,0 c 0,-0.568 0.207,-1.071 0.621,-1.507 0.414,-0.435 0.901,-0.653 1.461,-0.653 0.572,0 1.065,0.221 1.48,0.662 0.414,0.442 0.621,0.941 0.621,1.498 l 0,1.853 C 4.183,2.396 3.976,2.887 3.562,3.322 3.147,3.759 2.654,3.977 2.082,3.977 1.51,3.977 1.02,3.759 0.612,3.322 0.204,2.887 0,2.396 0,1.853 L 0,0 Z m -1.516,-0.005 0,1.862 c 0,0.938 0.357,1.757 1.069,2.457 0.712,0.701 1.555,1.05 2.529,1.05 0.975,0 1.82,-0.346 2.539,-1.041 C 5.34,3.63 5.698,2.808 5.698,1.857 l 0,-1.862 c 0,-0.926 -0.362,-1.748 -1.086,-2.466 -0.724,-0.718 -1.568,-1.078 -2.53,-1.078 -0.962,0 -1.802,0.357 -2.52,1.069 -0.719,0.712 -1.078,1.537 -1.078,2.475"
             style="fill:#1d1d1b;fill-opacity:1;fill-rule:nonzero;stroke:none"
             id="path218" /></g><g
           id="g220"
           transform="translate(374.0361,19.0635)"><path
             d="M 0,0 0,4.749 C 0,4.896 0.075,5.023 0.228,5.133 0.38,5.242 0.56,5.297 0.767,5.297 0.961,5.297 1.135,5.239 1.287,5.124 1.439,5.009 1.516,4.884 1.516,4.751 l 0,-4.737 c 0,-0.547 0.207,-1.039 0.621,-1.477 0.414,-0.436 0.907,-0.655 1.479,-0.655 0.56,0 1.047,0.215 1.461,0.646 0.414,0.432 0.621,0.927 0.621,1.486 l 0,4.755 c 0,0.133 0.076,0.254 0.229,0.364 0.152,0.109 0.331,0.164 0.539,0.164 0.219,0 0.398,-0.052 0.538,-0.155 0.14,-0.104 0.21,-0.229 0.21,-0.374 L 7.214,0 c 0,-0.937 -0.356,-1.756 -1.068,-2.456 -0.712,-0.7 -1.556,-1.051 -2.53,-1.051 -0.986,0 -1.836,0.351 -2.548,1.051 C 0.355,-1.756 0,-0.937 0,0"
             style="fill:#1d1d1b;fill-opacity:1;fill-rule:nonzero;stroke:none"
             id="path222" /></g><g
           id="g224"
           transform="translate(383.2217,16.251)"><path
             d="m 0,0 0,7.58 c 0,0.158 0.07,0.286 0.211,0.384 0.14,0.097 0.319,0.145 0.538,0.145 0.195,0 0.359,-0.048 0.493,-0.147 0.134,-0.1 0.201,-0.229 0.201,-0.389 l 0,-0.87 c 0.219,0.419 0.542,0.776 0.968,1.072 0.427,0.296 0.902,0.444 1.425,0.444 l 0.621,0 C 4.615,8.219 4.752,8.148 4.868,8.006 4.983,7.864 5.041,7.7 5.041,7.516 5.041,7.331 4.983,7.17 4.868,7.034 4.752,6.898 4.615,6.831 4.457,6.831 l -0.621,0 C 3.215,6.831 2.673,6.582 2.211,6.084 1.748,5.586 1.517,4.942 1.517,4.152 l 0,-4.153 C 1.517,-0.135 1.44,-0.26 1.288,-0.375 1.136,-0.49 0.956,-0.548 0.749,-0.548 0.542,-0.548 0.366,-0.493 0.22,-0.384 0.073,-0.273 0,-0.146 0,0"
             style="fill:#1d1d1b;fill-opacity:1;fill-rule:nonzero;stroke:none"
             id="path226" /></g><g
           id="g228"
           transform="translate(390.6201,20.8721)"><path
             d="m 0,0 c 0,-0.585 0.161,-1.065 0.483,-1.443 0.323,-0.377 0.765,-0.566 1.325,-0.566 0.536,0 0.967,0.186 1.296,0.557 0.33,0.371 0.494,0.849 0.494,1.433 l 0,0.603 C 3.598,1.145 3.434,1.613 3.104,1.991 2.775,2.368 2.338,2.557 1.789,2.557 1.229,2.557 0.791,2.371 0.475,2 0.157,1.628 0,1.156 0,0.584 L 0,0 Z m -0.457,-6.73 c 0,-0.478 0.21,-0.861 0.63,-1.149 0.42,-0.287 0.983,-0.432 1.689,-0.432 0.682,0 1.227,0.145 1.635,0.433 0.408,0.289 0.612,0.673 0.612,1.151 0,0.197 -0.034,0.369 -0.1,0.516 C 3.941,-6.063 3.835,-5.94 3.689,-5.843 3.543,-5.744 3.397,-5.661 3.251,-5.594 3.104,-5.526 2.914,-5.478 2.679,-5.446 2.443,-5.415 2.253,-5.39 2.108,-5.371 1.964,-5.353 1.765,-5.326 1.511,-5.293 1.257,-5.26 1.082,-5.236 0.986,-5.224 0.023,-5.542 -0.457,-6.044 -0.457,-6.73 M -1.9,-6.899 c 0,0.892 0.493,1.557 1.479,1.998 -0.597,0.231 -0.894,0.64 -0.894,1.227 0,0.562 0.292,1.013 0.877,1.355 -0.695,0.559 -1.041,1.327 -1.041,2.3 l 0,0.603 c 0,0.889 0.297,1.613 0.894,2.174 0.597,0.559 1.382,0.84 2.356,0.84 C 2.6,3.598 3.312,3.372 3.908,2.92 4.273,3.688 4.687,4.073 5.15,4.073 5.345,4.073 5.503,4.015 5.625,3.899 5.747,3.783 5.808,3.653 5.808,3.507 5.808,3.348 5.704,3.226 5.497,3.142 5.083,3.021 4.754,2.746 4.511,2.319 4.889,1.869 5.077,1.29 5.077,0.584 l 0,-0.603 c 0,-0.877 -0.31,-1.6 -0.931,-2.172 C 3.524,-2.765 2.733,-3.05 1.771,-3.05 c -0.5,0 -0.95,0.091 -1.351,0.274 -0.305,-0.179 -0.457,-0.382 -0.457,-0.609 0,-0.226 0.141,-0.402 0.422,-0.528 0.281,-0.125 0.627,-0.214 1.039,-0.266 0.411,-0.052 0.861,-0.11 1.351,-0.172 0.49,-0.062 0.942,-0.162 1.355,-0.298 0.413,-0.137 0.76,-0.378 1.039,-0.726 0.279,-0.348 0.42,-0.788 0.42,-1.322 0,-0.861 -0.345,-1.519 -1.032,-1.973 -0.689,-0.454 -1.58,-0.682 -2.676,-0.682 -1.096,0 -2,0.222 -2.712,0.664 -0.713,0.442 -1.069,1.039 -1.069,1.789"
             style="fill:#1d1d1b;fill-opacity:1;fill-rule:nonzero;stroke:none"
             id="path230" /></g><path
           d="m 47.55,146.126 -25.887,0 0,25.887 25.887,0 0,-25.887 z"
           style="fill:none;stroke:#a6cfc8;stroke-width:1.5;stroke-linecap:butt;stroke-linejoin:miter;stroke-miterlimit:10;stroke-dasharray:none;stroke-opacity:1"
           id="path232" /><path
           d="m 116.581,146.126 -25.887,0 0,25.887 25.887,0 0,-25.887 z"
           style="fill:none;stroke:#a6cfc8;stroke-width:1.5;stroke-linecap:butt;stroke-linejoin:miter;stroke-miterlimit:10;stroke-dasharray:none;stroke-opacity:1"
           id="path234" /><path
           d="m 151.097,146.126 -25.886,0 0,25.887 25.886,0 0,-25.887 z"
           style="fill:none;stroke:#a6cfc8;stroke-width:1.5;stroke-linecap:butt;stroke-linejoin:miter;stroke-miterlimit:10;stroke-dasharray:none;stroke-opacity:1"
           id="path236" /><path
           d="m 185.611,146.126 -25.886,0 0,25.887 25.886,0 0,-25.887 z"
           style="fill:none;stroke:#a6cfc8;stroke-width:1.5;stroke-linecap:butt;stroke-linejoin:miter;stroke-miterlimit:10;stroke-dasharray:none;stroke-opacity:1"
           id="path238" /><path
           d="m 220.13,146.126 -25.886,0 0,25.887 25.886,0 0,-25.887 z"
           style="fill:none;stroke:#a6cfc8;stroke-width:1.5;stroke-linecap:butt;stroke-linejoin:miter;stroke-miterlimit:10;stroke-dasharray:none;stroke-opacity:1"
           id="path240" /><path
           d="m 254.645,146.126 -25.887,0 0,25.887 25.887,0 0,-25.887 z"
           style="fill:none;stroke:#a6cfc8;stroke-width:1.5;stroke-linecap:butt;stroke-linejoin:miter;stroke-miterlimit:10;stroke-dasharray:none;stroke-opacity:1"
           id="path242" /><path
           d="m 289.161,146.126 -25.887,0 0,25.887 25.887,0 0,-25.887 z"
           style="fill:none;stroke:#a6cfc8;stroke-width:1.5;stroke-linecap:butt;stroke-linejoin:miter;stroke-miterlimit:10;stroke-dasharray:none;stroke-opacity:1"
           id="path244" /><path
           d="m 323.678,146.126 -25.887,0 0,25.887 25.887,0 0,-25.887 z"
           style="fill:none;stroke:#a6cfc8;stroke-width:1.5;stroke-linecap:butt;stroke-linejoin:miter;stroke-miterlimit:10;stroke-dasharray:none;stroke-opacity:1"
           id="path246" /><path
           d="m 358.191,146.126 -25.887,0 0,25.887 25.887,0 0,-25.887 z"
           style="fill:none;stroke:#a6cfc8;stroke-width:1.5;stroke-linecap:butt;stroke-linejoin:miter;stroke-miterlimit:10;stroke-dasharray:none;stroke-opacity:1"
           id="path248" /><path
           d="m 392.708,146.126 -25.887,0 0,25.887 25.887,0 0,-25.887 z"
           style="fill:none;stroke:#a6cfc8;stroke-width:1.5;stroke-linecap:butt;stroke-linejoin:miter;stroke-miterlimit:10;stroke-dasharray:none;stroke-opacity:1"
           id="path250" /><path
           d="m 47.55,111.613 -25.887,0 0,25.887 25.887,0 0,-25.887 z"
           style="fill:none;stroke:#a6cfc8;stroke-width:1.5;stroke-linecap:butt;stroke-linejoin:miter;stroke-miterlimit:10;stroke-dasharray:none;stroke-opacity:1"
           id="path252" /><path
           d="m 82.064,111.613 -25.887,0 0,25.887 25.887,0 0,-25.887 z"
           style="fill:none;stroke:#a6cfc8;stroke-width:1.5;stroke-linecap:butt;stroke-linejoin:miter;stroke-miterlimit:10;stroke-dasharray:none;stroke-opacity:1"
           id="path254" /><path
           d="m 116.581,111.613 -25.887,0 0,25.887 25.887,0 0,-25.887 z"
           style="fill:none;stroke:#a6cfc8;stroke-width:1.5;stroke-linecap:butt;stroke-linejoin:miter;stroke-miterlimit:10;stroke-dasharray:none;stroke-opacity:1"
           id="path256" /><path
           d="m 151.097,111.613 -25.886,0 0,25.887 25.886,0 0,-25.887 z"
           style="fill:none;stroke:#a6cfc8;stroke-width:1.5;stroke-linecap:butt;stroke-linejoin:miter;stroke-miterlimit:10;stroke-dasharray:none;stroke-opacity:1"
           id="path258" /><path
           d="m 185.611,111.613 -25.886,0 0,25.887 25.886,0 0,-25.887 z"
           style="fill:none;stroke:#a6cfc8;stroke-width:1.5;stroke-linecap:butt;stroke-linejoin:miter;stroke-miterlimit:10;stroke-dasharray:none;stroke-opacity:1"
           id="path260" /><path
           d="m 220.13,111.613 -25.886,0 0,25.887 25.886,0 0,-25.887 z"
           style="fill:none;stroke:#a6cfc8;stroke-width:1.5;stroke-linecap:butt;stroke-linejoin:miter;stroke-miterlimit:10;stroke-dasharray:none;stroke-opacity:1"
           id="path262" /><path
           d="m 254.645,111.613 -25.887,0 0,25.887 25.887,0 0,-25.887 z"
           style="fill:none;stroke:#a6cfc8;stroke-width:1.5;stroke-linecap:butt;stroke-linejoin:miter;stroke-miterlimit:10;stroke-dasharray:none;stroke-opacity:1"
           id="path264" /><path
           d="m 323.678,111.613 -25.887,0 0,25.887 25.887,0 0,-25.887 z"
           style="fill:none;stroke:#a6cfc8;stroke-width:1.5;stroke-linecap:butt;stroke-linejoin:miter;stroke-miterlimit:10;stroke-dasharray:none;stroke-opacity:1"
           id="path266" /><path
           d="m 358.191,111.613 -25.887,0 0,25.887 25.887,0 0,-25.887 z"
           style="fill:none;stroke:#a6cfc8;stroke-width:1.5;stroke-linecap:butt;stroke-linejoin:miter;stroke-miterlimit:10;stroke-dasharray:none;stroke-opacity:1"
           id="path268" /><path
           d="m 392.708,111.613 -25.887,0 0,25.887 25.887,0 0,-25.887 z"
           style="fill:none;stroke:#a6cfc8;stroke-width:1.5;stroke-linecap:butt;stroke-linejoin:miter;stroke-miterlimit:10;stroke-dasharray:none;stroke-opacity:1"
           id="path270" /><path
           d="m 271.937,164.072 -25.887,0 0,25.888 25.887,0 0,-25.888 z"
           style="fill:none;stroke:#eabe38;stroke-width:1.5;stroke-linecap:butt;stroke-linejoin:miter;stroke-miterlimit:10;stroke-dasharray:none;stroke-opacity:1"
           id="path272" /><path
           d="m 167.929,130.588 -25.887,0 0,25.886 25.887,0 0,-25.886 z"
           style="fill:none;stroke:#eabe38;stroke-width:1.5;stroke-linecap:butt;stroke-linejoin:miter;stroke-miterlimit:10;stroke-dasharray:none;stroke-opacity:1"
           id="path274" /><path
           d="m 237.435,130.588 -25.887,0 0,25.886 25.887,0 0,-25.886 z"
           style="fill:none;stroke:#eabe38;stroke-width:1.5;stroke-linecap:butt;stroke-linejoin:miter;stroke-miterlimit:10;stroke-dasharray:none;stroke-opacity:1"
           id="path276" /><path
           d="m 202.937,164.072 -25.887,0 0,25.888 25.887,0 0,-25.888 z"
           style="fill:#eabe38;fill-opacity:1;fill-rule:nonzero;stroke:#eabe38;stroke-width:0.85000002;stroke-linecap:butt;stroke-linejoin:miter;stroke-miterlimit:10;stroke-dasharray:none;stroke-opacity:1"
           id="path278" /><path
           d="m 340.935,164.072 -25.887,0 0,25.888 25.887,0 0,-25.888 z"
           style="fill:none;stroke:#c93e56;stroke-width:1.5;stroke-linecap:butt;stroke-linejoin:miter;stroke-miterlimit:10;stroke-dasharray:none;stroke-opacity:1"
           id="path280" /><path
           d="m 409.935,199.585 -25.887,0 0,25.887 25.887,0 0,-25.887 z"
           style="fill:none;stroke:#c93e56;stroke-width:1.5;stroke-linecap:butt;stroke-linejoin:miter;stroke-miterlimit:10;stroke-dasharray:none;stroke-opacity:1"
           id="path282" /><path
           d="m 375.433,130.588 -25.887,0 0,25.886 25.887,0 0,-25.886 z"
           style="fill:#c93e56;fill-opacity:1;fill-rule:nonzero;stroke:none"
           id="path284" /></g></g></g></svg>